<mxfile host="app.diagrams.net" modified="2024-04-11T20:18:11.199Z" agent="Mozilla/5.0 (Windows NT 10.0; Win64; x64) AppleWebKit/537.36 (KHTML, like Gecko) Chrome/123.0.0.0 Safari/537.36" etag="6NGuLAY3aLVQxTPDqSE4" version="24.2.3" type="device">
  <diagram name="Seite-1" id="2CMjkhZb_L5gha50OW4k">
    <mxGraphModel dx="1077" dy="559" grid="1" gridSize="10" guides="1" tooltips="1" connect="1" arrows="1" fold="1" page="1" pageScale="1" pageWidth="827" pageHeight="1169" math="0" shadow="0">
      <root>
        <mxCell id="0" />
        <mxCell id="1" parent="0" />
        <mxCell id="sNHeVaCK9WkUKxbYoAWt-12" style="edgeStyle=orthogonalEdgeStyle;rounded=0;orthogonalLoop=1;jettySize=auto;html=1;exitX=1;exitY=0.5;exitDx=0;exitDy=0;entryX=0;entryY=0;entryDx=0;entryDy=0;curved=1;" edge="1" parent="1" source="sNHeVaCK9WkUKxbYoAWt-1" target="sNHeVaCK9WkUKxbYoAWt-6">
          <mxGeometry relative="1" as="geometry" />
        </mxCell>
        <mxCell id="sNHeVaCK9WkUKxbYoAWt-1" value="Left running mat&lt;div&gt;pressure sensor&lt;br&gt;&lt;/div&gt;" style="rounded=0;whiteSpace=wrap;html=1;" vertex="1" parent="1">
          <mxGeometry x="10" y="10" width="120" height="60" as="geometry" />
        </mxCell>
        <mxCell id="sNHeVaCK9WkUKxbYoAWt-10" style="edgeStyle=orthogonalEdgeStyle;rounded=0;orthogonalLoop=1;jettySize=auto;html=1;exitX=1;exitY=0.5;exitDx=0;exitDy=0;entryX=0;entryY=0.5;entryDx=0;entryDy=0;curved=1;" edge="1" parent="1" source="sNHeVaCK9WkUKxbYoAWt-2" target="sNHeVaCK9WkUKxbYoAWt-6">
          <mxGeometry relative="1" as="geometry" />
        </mxCell>
        <mxCell id="sNHeVaCK9WkUKxbYoAWt-2" value="Right running mat&lt;div&gt;pressure sensor&lt;/div&gt;" style="rounded=0;whiteSpace=wrap;html=1;" vertex="1" parent="1">
          <mxGeometry x="10" y="170" width="120" height="60" as="geometry" />
        </mxCell>
        <mxCell id="sNHeVaCK9WkUKxbYoAWt-9" style="edgeStyle=orthogonalEdgeStyle;rounded=0;orthogonalLoop=1;jettySize=auto;html=1;exitX=1;exitY=0.5;exitDx=0;exitDy=0;entryX=0;entryY=0.25;entryDx=0;entryDy=0;curved=1;" edge="1" parent="1" source="sNHeVaCK9WkUKxbYoAWt-3" target="sNHeVaCK9WkUKxbYoAWt-6">
          <mxGeometry relative="1" as="geometry" />
        </mxCell>
        <mxCell id="sNHeVaCK9WkUKxbYoAWt-3" value="Middle running mat&lt;div&gt;pressure sensor&lt;br&gt;&lt;/div&gt;" style="rounded=0;whiteSpace=wrap;html=1;" vertex="1" parent="1">
          <mxGeometry x="10" y="90" width="120" height="60" as="geometry" />
        </mxCell>
        <mxCell id="sNHeVaCK9WkUKxbYoAWt-14" style="edgeStyle=orthogonalEdgeStyle;rounded=0;orthogonalLoop=1;jettySize=auto;html=1;exitX=1;exitY=0.5;exitDx=0;exitDy=0;entryX=0;entryY=1;entryDx=0;entryDy=0;curved=1;" edge="1" parent="1" source="sNHeVaCK9WkUKxbYoAWt-4" target="sNHeVaCK9WkUKxbYoAWt-6">
          <mxGeometry relative="1" as="geometry" />
        </mxCell>
        <mxCell id="sNHeVaCK9WkUKxbYoAWt-4" value="Right Hand Controller IMU" style="rounded=0;whiteSpace=wrap;html=1;" vertex="1" parent="1">
          <mxGeometry x="10" y="330" width="120" height="60" as="geometry" />
        </mxCell>
        <mxCell id="sNHeVaCK9WkUKxbYoAWt-13" style="edgeStyle=orthogonalEdgeStyle;rounded=0;orthogonalLoop=1;jettySize=auto;html=1;exitX=1;exitY=0.5;exitDx=0;exitDy=0;entryX=0;entryY=0.75;entryDx=0;entryDy=0;curved=1;" edge="1" parent="1" source="sNHeVaCK9WkUKxbYoAWt-5" target="sNHeVaCK9WkUKxbYoAWt-6">
          <mxGeometry relative="1" as="geometry" />
        </mxCell>
        <mxCell id="sNHeVaCK9WkUKxbYoAWt-5" value="Left Hand Controller IMU" style="rounded=0;whiteSpace=wrap;html=1;" vertex="1" parent="1">
          <mxGeometry x="10" y="250" width="120" height="60" as="geometry" />
        </mxCell>
        <mxCell id="sNHeVaCK9WkUKxbYoAWt-17" style="edgeStyle=orthogonalEdgeStyle;rounded=0;orthogonalLoop=1;jettySize=auto;html=1;exitX=1;exitY=0.5;exitDx=0;exitDy=0;entryX=0;entryY=0.5;entryDx=0;entryDy=0;" edge="1" parent="1" source="sNHeVaCK9WkUKxbYoAWt-6" target="sNHeVaCK9WkUKxbYoAWt-15">
          <mxGeometry relative="1" as="geometry" />
        </mxCell>
        <mxCell id="sNHeVaCK9WkUKxbYoAWt-6" value="n x ESP32(s)" style="rounded=0;whiteSpace=wrap;html=1;" vertex="1" parent="1">
          <mxGeometry x="190" y="140" width="120" height="120" as="geometry" />
        </mxCell>
        <mxCell id="sNHeVaCK9WkUKxbYoAWt-20" style="edgeStyle=orthogonalEdgeStyle;rounded=0;orthogonalLoop=1;jettySize=auto;html=1;exitX=1;exitY=0.5;exitDx=0;exitDy=0;entryX=0;entryY=0.5;entryDx=0;entryDy=0;" edge="1" parent="1" source="sNHeVaCK9WkUKxbYoAWt-15" target="sNHeVaCK9WkUKxbYoAWt-16">
          <mxGeometry relative="1" as="geometry" />
        </mxCell>
        <mxCell id="sNHeVaCK9WkUKxbYoAWt-15" value="Sensor data processing unit (web server, etc.)" style="rounded=0;whiteSpace=wrap;html=1;" vertex="1" parent="1">
          <mxGeometry x="344" y="140" width="120" height="120" as="geometry" />
        </mxCell>
        <mxCell id="sNHeVaCK9WkUKxbYoAWt-16" value="Videogame" style="rounded=0;whiteSpace=wrap;html=1;" vertex="1" parent="1">
          <mxGeometry x="500" y="140" width="120" height="120" as="geometry" />
        </mxCell>
      </root>
    </mxGraphModel>
  </diagram>
</mxfile>
